<?xml version="1.0" standalone="no"?>
<!DOCTYPE svg PUBLIC "-//W3C//DTD SVG 20010904//EN"
 "http://www.w3.org/TR/2001/REC-SVG-20010904/DTD/svg10.dtd">
<svg version="1.0" xmlns="http://www.w3.org/2000/svg"
 width="512.000000pt" height="512.000000pt" viewBox="0 0 512.000000 512.000000"
 preserveAspectRatio="xMidYMid meet">
<metadata>
Created by potrace 1.14, written by Peter Selinger 2001-2017
</metadata>
<g transform="translate(0.000000,512.000000) scale(0.100000,-0.100000)"
fill="#000000" stroke="none">
<path d="M3199 5094 c-58 -30 -111 -37 -146 -19 -40 21 -90 19 -110 -5 -10
-11 -23 -20 -30 -20 -7 0 -13 -3 -13 -8 0 -15 -42 -32 -132 -56 -81 -21 -102
-23 -158 -14 -36 5 -69 14 -74 19 -21 20 -68 7 -137 -37 -96 -62 -128 -69
-220 -44 -41 11 -80 20 -87 20 -7 0 -49 -35 -93 -77 -90 -88 -216 -163 -274
-163 -38 0 -100 29 -137 63 -33 30 -80 103 -103 157 -10 25 -24 52 -32 59 -16
18 -95 40 -146 41 -48 0 -117 -50 -158 -115 -16 -26 -34 -52 -39 -58 -17 -20
-43 -52 -80 -98 -19 -24 -73 -83 -120 -130 -47 -47 -103 -105 -124 -128 -77
-83 -171 -102 -265 -53 -45 24 -71 27 -87 13 -13 -13 -164 -91 -176 -91 -5 0
-24 -6 -41 -14 -18 -8 -62 -20 -100 -26 -37 -7 -78 -21 -92 -32 l-25 -19 0
-1640 0 -1639 38 -2 c20 -1 80 -3 132 -4 52 -1 115 -5 140 -8 25 -3 103 -7
173 -10 71 -2 150 -7 175 -11 26 -3 184 -7 352 -9 168 -2 350 -9 405 -15 55
-6 142 -12 192 -14 l93 -3 6 36 c12 73 13 61 8 -65 -6 -146 -29 -344 -48 -422
-8 -28 -12 -54 -10 -56 3 -2 -3 -44 -11 -93 -18 -96 -44 -271 -45 -291 0 -10
95 -13 444 -13 l445 0 10 53 c29 146 41 223 41 261 0 23 9 78 19 122 10 43 24
111 30 149 17 105 103 411 90 320 -6 -43 9 -62 52 -63 22 -1 48 -6 58 -11 9
-5 87 -11 172 -12 84 -1 213 -3 284 -5 72 -2 234 -5 360 -6 127 -2 233 -7 236
-12 4 -4 33 -10 65 -11 33 -2 89 -8 125 -13 37 -6 73 -10 80 -9 8 1 31 -3 52
-7 27 -6 42 -4 54 5 20 17 287 17 390 0 54 -9 420 -18 496 -12 16 1 17 91 17
1736 0 954 -4 1735 -8 1735 -13 0 -36 52 -35 80 0 14 5 44 11 68 10 42 9 44
-24 74 -18 17 -32 34 -29 38 2 3 -5 21 -16 40 -14 22 -21 51 -21 87 0 29 -5
56 -9 59 -19 11 -8 51 21 79 17 16 30 35 30 42 0 7 5 13 10 13 6 0 10 8 10 19
0 20 -49 62 -97 83 -15 7 -31 17 -36 23 -14 19 -30 90 -28 129 0 21 -4 45 -10
52 -9 11 -96 14 -463 14 -533 0 -499 7 -498 -106 0 -38 3 -90 7 -115 6 -43 5
-48 -20 -65 -14 -11 -40 -30 -56 -43 -19 -15 -48 -26 -77 -28 -43 -4 -50 -2
-79 29 -62 65 -91 104 -123 168 -37 74 -98 136 -150 150 -65 18 -180 10 -231
-16z m-869 -1224 c25 -6 81 -12 125 -15 44 -3 114 -10 155 -16 41 -5 117 -14
169 -19 52 -5 99 -14 105 -20 5 -5 6 -10 1 -10 -5 0 0 -7 11 -15 18 -14 18
-14 -8 -15 -15 0 -29 -4 -32 -9 -7 -11 -96 -11 -96 0 0 5 -22 11 -50 15 -27 4
-50 9 -50 13 0 3 -50 5 -112 5 -80 -1 -115 2 -123 11 -10 12 -71 27 -109 26
-10 0 -30 8 -44 17 -19 12 -27 13 -30 4 -5 -17 -32 -15 -32 3 0 18 -12 19 -28
3 -13 -13 -62 4 -62 22 0 13 149 13 210 0z m617 -106 c-3 -3 -12 -4 -19 -1 -8
3 -5 6 6 6 11 1 17 -2 13 -5z m-12 -52 c-3 -3 -11 0 -18 7 -9 10 -8 11 6 5 10
-3 15 -9 12 -12z m-1052 -60 c14 -15 15 -21 4 -36 -12 -17 -14 -17 -44 1 -30
17 -32 17 -52 -1 -29 -26 -28 0 1 31 26 28 69 30 91 5z m1189 -29 c20 -24 42
-82 34 -90 -3 -3 -13 11 -22 33 -9 21 -23 47 -32 57 -8 9 -11 17 -5 17 5 0 17
-8 25 -17z m-1145 -61 c2 -51 -6 -53 -29 -8 -12 25 -13 37 -5 45 20 20 32 6
34 -37z m-117 15 c-25 -19 -90 -103 -90 -115 0 -6 -4 -13 -9 -17 -15 -9 9 67
32 100 26 37 37 45 62 45 17 -1 18 -2 5 -13z m1388 -79 c5 -7 13 -24 17 -38 7
-23 7 -23 -9 -7 -21 21 -36 21 -62 2 -43 -32 -60 -8 -22 32 23 25 60 30 76 11z
m-1013 -78 c-7 -12 62 -20 115 -14 25 2 52 5 60 5 8 0 37 5 64 10 35 7 53 6
63 -3 11 -9 16 -9 23 2 7 12 10 11 16 -3 4 -11 13 -16 21 -13 8 4 30 -1 48
-10 19 -9 38 -13 44 -10 5 4 13 1 16 -5 4 -5 12 -8 19 -6 18 7 119 -13 135
-26 12 -10 14 -9 9 4 -9 24 35 17 47 -8 6 -12 16 -27 23 -35 9 -12 7 -19 -12
-35 -14 -13 -26 -37 -30 -64 -6 -39 -4 -46 16 -62 44 -33 78 -70 78 -84 0 -17
-1 -17 -40 12 -19 14 -48 25 -65 25 -17 0 -40 9 -52 19 -40 38 -89 55 -198 67
-85 10 -119 11 -150 2 -22 -7 -65 -13 -95 -14 -81 -3 -132 -14 -163 -36 l-27
-20 4 36 c4 35 25 82 26 59 0 -14 30 -18 30 -5 0 4 14 22 30 41 17 18 29 39
28 47 -2 8 8 20 21 27 14 6 26 18 29 26 3 10 -8 12 -59 8 -35 -3 -65 -6 -65
-6 -1 -1 -4 -10 -7 -22 -7 -25 -27 -16 -27 12 0 10 -7 19 -15 19 -19 0 -19 5
3 51 12 27 20 34 29 27 7 -6 11 -14 8 -18z m909 -13 c-3 -9 -11 -17 -16 -17
-6 0 -7 7 -4 16 3 9 6 21 6 27 0 8 3 8 10 1 6 -6 8 -18 4 -27z m112 25 c6 -4
19 -29 29 -55 13 -36 15 -51 7 -59 -7 -7 -13 -10 -14 -7 -2 2 -17 32 -34 67
-26 51 -29 62 -15 62 9 0 21 -4 27 -8z m-1439 -202 c7 0 16 -7 19 -15 4 -10
13 -13 26 -9 14 4 18 2 13 -5 -4 -7 -20 -9 -43 -5 -45 8 -42 5 -52 48 -10 44
2 59 14 17 5 -17 15 -31 23 -31z m73 15 c-7 -9 -15 -13 -19 -10 -3 3 1 10 9
15 21 14 24 12 10 -5z m1220 -35 c0 -5 -5 -10 -11 -10 -5 0 -7 5 -4 10 3 6 8
10 11 10 2 0 4 -4 4 -10z m115 -122 c-10 -45 -34 -71 -52 -57 -18 16 -17 43 2
35 10 -3 18 1 22 12 7 19 23 42 30 42 3 0 1 -15 -2 -32z m-71 1 c-3 -5 -10 -7
-15 -3 -5 3 -7 10 -3 15 3 5 10 7 15 3 5 -3 7 -10 3 -15z m-989 -29 c-3 -5
-10 -10 -16 -10 -5 0 -9 5 -9 10 0 6 7 10 16 10 8 0 12 -4 9 -10z m-431 -81
c-9 -35 -17 -95 -18 -132 -1 -56 2 -71 18 -82 14 -11 17 -22 12 -45 -3 -18 -1
-41 6 -53 13 -24 13 -24 27 -114 12 -73 37 -140 63 -169 10 -11 18 -24 18 -28
0 -5 18 -36 40 -69 23 -33 39 -66 36 -73 -8 -20 19 -76 49 -106 25 -25 25 -27
6 -25 -11 1 -22 6 -25 12 -2 7 -29 10 -66 9 -55 -1 -64 -4 -76 -25 -13 -23
-13 -23 -14 -3 0 26 -47 55 -59 35 -5 -7 -17 -10 -33 -6 -16 4 -29 1 -37 -9
-11 -13 -8 -26 18 -77 17 -34 31 -65 31 -68 -1 -16 -44 52 -76 119 -79 165
-109 285 -109 430 0 100 2 110 43 207 73 178 152 347 158 340 3 -3 -3 -33 -12
-68z m416 6 c0 -22 -29 -75 -40 -75 -14 0 -12 14 7 55 17 37 33 46 33 20z
m1061 -98 c-10 -9 -11 -8 -5 6 3 10 9 15 12 12 3 -3 0 -11 -7 -18z m33 -280
c11 -70 17 -148 15 -208 -4 -93 -5 -98 -62 -215 -48 -98 -123 -215 -217 -339
-8 -11 -39 -42 -67 -70 -29 -28 -53 -57 -53 -63 0 -7 -11 -12 -25 -12 -31 0
-35 35 -5 45 11 3 25 15 30 26 6 10 16 19 22 19 14 0 118 107 118 120 0 14
-17 12 -23 -2 -3 -8 -6 -6 -6 5 -1 10 -9 17 -21 17 -11 0 -20 4 -20 9 0 5 -8
7 -17 5 -10 -3 -41 4 -69 14 l-52 18 49 54 c27 30 52 64 55 75 9 28 109 135
126 135 5 0 8 5 8 11 0 5 13 27 29 47 17 20 42 66 57 102 15 36 33 72 39 80
12 15 55 190 55 223 0 9 4 17 8 17 5 0 17 -51 26 -113z m-494 -187 c16 -11 35
-18 43 -14 10 4 16 -4 20 -28 7 -45 -1 -161 -13 -194 -12 -32 -6 -42 14 -24
27 22 39 6 17 -22 -12 -14 -21 -32 -21 -38 0 -7 -9 -28 -20 -46 -12 -18 -20
-45 -18 -59 2 -19 -3 -29 -22 -39 -14 -7 -40 -21 -58 -31 -39 -20 -126 -14
-153 11 -12 11 -19 12 -24 4 -4 -7 1 -13 12 -16 28 -8 23 -48 -6 -52 -13 -2
-28 1 -34 7 -8 8 -6 11 6 11 21 0 22 13 2 30 -12 10 -21 10 -40 2 -22 -10 -29
-7 -65 31 -26 27 -46 60 -55 92 -17 60 -20 227 -6 310 6 33 11 61 11 61 0 1 9
4 19 7 30 7 44 -8 50 -54 7 -49 27 -63 37 -25 7 30 14 31 71 10 50 -19 128
-12 137 13 4 8 13 13 21 9 11 -4 15 1 15 17 0 20 16 47 28 47 2 0 17 -9 32
-20z m-703 -185 c9 -25 -4 -29 -17 -6 -7 15 -7 21 0 21 6 0 13 -7 17 -15z
m105 -8 c8 -14 -2 -71 -14 -75 -13 -6 -9 -39 7 -52 8 -6 23 -9 35 -5 12 4 26
0 35 -9 14 -13 13 -17 -7 -36 -30 -28 -68 -37 -79 -19 -5 8 -14 33 -20 56 -6
23 -20 49 -30 59 -22 20 -26 64 -5 64 8 0 18 9 21 20 5 16 12 19 28 14 12 -4
25 -12 29 -17z m-377 -1105 c-10 -10 -11 4 -5 108 l5 105 3 -104 c1 -57 0
-106 -3 -109z m1044 126 c-6 -34 -16 -67 -21 -73 -7 -7 -8 -3 -5 10 3 11 11
46 18 78 16 77 24 65 8 -15z m-1042 -200 c-2 -13 -4 -5 -4 17 -1 22 1 32 4 23
2 -10 2 -28 0 -40z m970 -50 c-3 -8 -6 -5 -6 6 -1 11 2 17 5 13 3 -3 4 -12 1
-19z"/>
<path d="M2727 3298 c4 -7 8 -17 8 -22 0 -9 18 -21 48 -30 9 -3 22 -16 27 -28
7 -18 8 -13 6 22 -3 38 -7 45 -25 45 -11 0 -26 6 -33 13 -16 16 -42 16 -31 0z"/>
<path d="M2850 1964 c0 -8 5 -12 10 -9 6 3 10 10 10 16 0 5 -4 9 -10 9 -5 0
-10 -7 -10 -16z"/>
</g>
</svg>
